<?xml version="1.0" encoding="UTF-8"?> <svg xmlns="http://www.w3.org/2000/svg" width="39" height="38" viewBox="0 0 39 38" fill="none"> <g clip-path="url(#clip0_58_32)"> <path fill-rule="evenodd" clip-rule="evenodd" d="M16.8636 0.726421C17.6868 0.333066 18.5876 0.128906 19.4999 0.128906C20.4122 0.128906 21.313 0.333066 22.1361 0.726421C22.8618 1.0733 23.5237 1.63955 24.4443 2.4233L24.5905 2.54705C25.0368 2.92768 25.1774 3.04393 25.3199 3.13955C25.6818 3.3833 26.0887 3.55018 26.5143 3.63455C26.683 3.6683 26.8649 3.68518 27.4499 3.73018L27.6393 3.74518C28.843 3.84081 29.713 3.91018 30.4705 4.17643C31.331 4.48135 32.1126 4.97459 32.7581 5.62012C33.4036 6.26566 33.8969 7.0472 34.2018 7.90769C34.4681 8.6652 34.5356 9.5352 34.6331 10.739L34.6481 10.9283C34.6931 11.5133 34.7099 11.6971 34.7437 11.864C34.8281 12.2915 34.9968 12.6983 35.2387 13.0602C35.3343 13.2008 35.4506 13.3415 35.8312 13.7877L35.9549 13.934C36.7406 14.8527 37.3049 15.5165 37.6518 16.2402C38.4487 17.909 38.4487 19.8477 37.6518 21.5146C37.3068 22.2402 36.7406 22.9021 35.9549 23.8227L35.8312 23.969C35.621 24.2015 35.4232 24.445 35.2387 24.6984C34.9949 25.0602 34.8281 25.4671 34.7437 25.8927C34.7099 26.0615 34.6949 26.2434 34.6481 26.8284L34.6312 27.0177C34.5374 28.2215 34.4681 29.0915 34.1999 29.849C33.8964 30.71 33.4039 31.492 32.7585 32.1377C32.1131 32.7834 31.3314 33.2763 30.4705 33.5803C29.713 33.8465 28.843 33.914 27.6393 34.0115L27.4499 34.0265C27.1366 34.0419 26.8243 34.0738 26.5143 34.1221C26.0873 34.2065 25.6814 34.3748 25.3199 34.6171C25.0661 34.8018 24.822 34.9996 24.5887 35.2096L24.4443 35.3334C23.5255 36.119 22.8618 36.6834 22.138 37.0303C21.3146 37.4239 20.4135 37.6282 19.5008 37.6282C18.5882 37.6282 17.6871 37.4239 16.8636 37.0303C16.138 36.6853 15.4761 36.119 14.5555 35.3334C14.5068 35.2921 14.458 35.2509 14.4092 35.2096C14.1773 34.9996 13.9344 34.8018 13.6817 34.6171C13.3199 34.3742 12.9132 34.2059 12.4855 34.1221C12.1755 34.0738 11.8632 34.0419 11.5499 34.0265L11.3605 34.0096C10.1567 33.9159 9.28674 33.8465 8.52923 33.5784C7.66834 33.2747 6.88637 32.7822 6.2407 32.1368C5.59504 31.4915 5.10207 30.7097 4.79797 29.849C4.53172 29.0915 4.46235 28.2215 4.36672 27.0177L4.35172 26.8284C4.33631 26.515 4.30439 26.2027 4.2561 25.8927C4.17165 25.4658 4.00341 25.0599 3.76109 24.6984C3.57665 24.4443 3.37887 24.2002 3.16859 23.9671L3.04484 23.8227C2.26109 22.904 1.69484 22.2402 1.34796 21.5165C0.954317 20.6931 0.75 19.792 0.75 18.8793C0.75 17.9666 0.954317 17.0655 1.34796 16.2421C1.69484 15.5165 2.26109 14.8546 3.04484 13.934L3.16859 13.7877C3.37871 13.5558 3.57649 13.3129 3.76109 13.0602C4.00485 12.6983 4.17172 12.2915 4.2561 11.864C4.28985 11.6952 4.30672 11.5133 4.35172 10.9283L4.36672 10.739C4.46235 9.5352 4.53172 8.6652 4.79797 7.90769C5.10183 7.04661 5.59469 6.26451 6.24037 5.61883C6.88605 4.97315 7.66815 4.48029 8.52923 4.17643C9.28674 3.91018 10.1567 3.84081 11.3605 3.74518L11.5499 3.73018C11.8633 3.71584 12.1757 3.68392 12.4855 3.63455C12.913 3.55018 13.3199 3.38143 13.6817 3.13955C13.8224 3.04393 13.963 2.92768 14.4092 2.54705L14.5555 2.4233C15.4743 1.63955 16.1399 1.0733 16.8636 0.726421ZM20.9193 3.27268C20.4761 3.06093 19.9911 2.95102 19.4999 2.95102C19.0087 2.95102 18.5237 3.06093 18.0805 3.27268C17.7336 3.43768 17.368 3.73581 16.2411 4.69393L16.1849 4.74081C15.8155 5.05581 15.5474 5.28643 15.253 5.48331C14.5799 5.93331 13.8261 6.24644 13.0311 6.40206C12.6842 6.47144 12.3317 6.49956 11.8461 6.53894L11.7749 6.54456C10.2992 6.66269 9.83236 6.71144 9.46861 6.83894C8.53111 7.17082 7.79236 7.90769 7.46236 8.84707C7.3311 9.21082 7.28423 9.6777 7.1661 11.1533L7.16048 11.2246C7.12298 11.7102 7.09298 12.0627 7.02548 12.4096C6.86798 13.2046 6.55673 13.9583 6.10673 14.6315C5.90798 14.9258 5.67735 15.194 5.36235 15.5652L5.31547 15.6196C4.35735 16.7446 4.05922 17.1121 3.89422 17.4571C3.68218 17.9006 3.57212 18.3859 3.57212 18.8774C3.57212 19.369 3.68218 19.8543 3.89422 20.2977C4.05922 20.6446 4.35735 21.0102 5.31547 22.1371L5.36235 22.1934C5.67735 22.5627 5.90798 22.8309 6.10485 23.1252C6.55485 23.7984 6.86798 24.5521 7.0236 25.3452C7.09298 25.694 7.1211 26.0465 7.16048 26.5321L7.1661 26.6034C7.28423 28.079 7.33298 28.5459 7.46048 28.9096C7.79236 29.8471 8.52923 30.5859 9.46861 30.9159C9.83236 31.0471 10.2992 31.094 11.7749 31.2121L11.8461 31.2178C12.3317 31.2553 12.6842 31.2853 13.0311 31.3528C13.8261 31.5103 14.5799 31.8215 15.253 32.2715C15.5474 32.4703 15.8155 32.7009 16.1868 33.0159L16.2411 33.0628C17.3661 34.0209 17.7336 34.319 18.0786 34.484C18.5221 34.6961 19.0074 34.8061 19.499 34.8061C19.9905 34.8061 20.4758 34.6961 20.9193 34.484C21.2661 34.319 21.6318 34.0209 22.7586 33.0628L22.8149 33.0159C23.1843 32.7009 23.4524 32.4703 23.7468 32.2734C24.4187 31.8233 25.1733 31.511 25.9668 31.3546C26.3594 31.2862 26.7557 31.2405 27.1537 31.2178L27.2249 31.2121C28.7005 31.094 29.1674 31.0453 29.5312 30.9178C30.4687 30.5859 31.2074 29.849 31.5374 28.9096C31.6687 28.5459 31.7155 28.0771 31.8337 26.6034L31.8393 26.5321C31.8615 26.1342 31.9065 25.7379 31.9743 25.3452C32.1318 24.5521 32.4431 23.7984 32.8931 23.1252C33.0918 22.8309 33.3224 22.5627 33.6374 22.1915L33.6843 22.1371C34.6424 21.0121 34.9406 20.6446 35.1056 20.2996C35.3176 19.8561 35.4277 19.3708 35.4277 18.8793C35.4277 18.3877 35.3176 17.9024 35.1056 17.459C34.9406 17.1121 34.6424 16.7465 33.6843 15.6196L33.6374 15.5633C33.3224 15.194 33.0918 14.9258 32.8949 14.6315C32.4447 13.9589 32.1324 13.2037 31.9762 12.4096C31.9079 12.0175 31.8622 11.6219 31.8393 11.2246L31.8337 11.1533C31.7155 9.6777 31.6668 9.21082 31.5393 8.84707C31.2074 7.90957 30.4705 7.17081 29.5312 6.84081C29.1674 6.70956 28.6987 6.66269 27.2249 6.54456L27.1537 6.53894C26.7558 6.51663 26.3595 6.47155 25.9668 6.40394C25.1733 6.24747 24.4188 5.9352 23.7468 5.48519C23.4524 5.28643 23.1843 5.05581 22.813 4.74081L22.7586 4.69393C21.6336 3.73581 21.2661 3.43768 20.9211 3.27268H20.9193Z" fill="white"></path> <path fill-rule="evenodd" clip-rule="evenodd" d="M26.1425 12.236C26.2736 12.3671 26.3777 12.5227 26.4486 12.694C26.5196 12.8654 26.5561 13.049 26.5561 13.2344C26.5561 13.4198 26.5196 13.6035 26.4486 13.7748C26.3777 13.9461 26.2736 14.1017 26.1425 14.2328L14.8531 25.5204C14.5861 25.7733 14.231 25.912 13.8633 25.9072C13.4956 25.9023 13.1444 25.7541 12.8842 25.4942C12.6241 25.2343 12.4756 24.8832 12.4704 24.5155C12.4651 24.1478 12.6036 23.7926 12.8562 23.5254L24.1456 12.2378C24.2767 12.1067 24.4324 12.0027 24.6037 11.9317C24.775 11.8607 24.9586 11.8242 25.1441 11.8242C25.3295 11.8242 25.5131 11.8607 25.6844 11.9317C25.8557 12.0027 26.0114 12.1067 26.1425 12.2378V12.236Z" fill="white"></path> <path d="M26.085 23.5834C26.093 23.8355 26.0502 24.0866 25.9592 24.3219C25.8683 24.5571 25.7309 24.7717 25.5554 24.9528C25.3799 25.1339 25.1698 25.278 24.9376 25.3763C24.7053 25.4747 24.4557 25.5253 24.2035 25.5253C23.9513 25.5253 23.7016 25.4747 23.4694 25.3763C23.2371 25.278 23.027 25.1339 22.8515 24.9528C22.676 24.7717 22.5387 24.5571 22.4477 24.3219C22.3567 24.0866 22.3139 23.8355 22.3219 23.5834C22.3373 23.0947 22.5423 22.6311 22.8935 22.2909C23.2447 21.9506 23.7145 21.7603 24.2035 21.7603C24.6925 21.7603 25.1623 21.9506 25.5134 22.2909C25.8646 22.6311 26.0696 23.0947 26.085 23.5834ZM16.6781 14.1747C16.6861 14.4268 16.6433 14.6779 16.5523 14.9131C16.4614 15.1483 16.324 15.3629 16.1485 15.544C15.973 15.7252 15.7629 15.8692 15.5307 15.9675C15.2984 16.0659 15.0488 16.1166 14.7966 16.1166C14.5444 16.1166 14.2947 16.0659 14.0625 15.9675C13.8302 15.8692 13.6201 15.7252 13.4446 15.544C13.2691 15.3629 13.1318 15.1483 13.0408 14.9131C12.9498 14.6779 12.907 14.4268 12.915 14.1747C12.9304 13.6859 13.1354 13.2224 13.4866 12.8821C13.8378 12.5418 14.3076 12.3516 14.7966 12.3516C15.2856 12.3516 15.7554 12.5418 16.1065 12.8821C16.4577 13.2224 16.6627 13.6859 16.6781 14.1747Z" fill="white"></path> </g> <defs> <clipPath id="clip0_58_32"> <rect width="37.5" height="37.5" fill="white" transform="translate(0.75 0.125)"></rect> </clipPath> </defs> </svg> 